<svg width="63" height="12" viewBox="0 0 63 12" fill="none" xmlns="http://www.w3.org/2000/svg">
<path d="M0.84 3.426C0.905333 2.56733 1.23667 1.89533 1.834 1.41C2.43133 0.924666 3.206 0.681999 4.158 0.681999C4.79267 0.681999 5.33867 0.798666 5.796 1.032C6.26267 1.256 6.61267 1.564 6.846 1.956C7.08867 2.348 7.21 2.79133 7.21 3.286C7.21 3.86467 7.042 4.364 6.706 4.784C6.37933 5.204 5.95 5.47467 5.418 5.596V5.666C6.02467 5.81533 6.50533 6.10933 6.86 6.548C7.21467 6.98667 7.392 7.56067 7.392 8.27C7.392 8.802 7.27067 9.28267 7.028 9.712C6.78533 10.132 6.42133 10.4633 5.936 10.706C5.45067 10.9487 4.86733 11.07 4.186 11.07C3.19667 11.07 2.38467 10.8133 1.75 10.3C1.11533 9.77733 0.760667 9.04 0.686 8.088H1.918C1.98333 8.648 2.212 9.10533 2.604 9.46C2.996 9.81467 3.51867 9.992 4.172 9.992C4.82533 9.992 5.32 9.824 5.656 9.488C6.00133 9.14267 6.174 8.69933 6.174 8.158C6.174 7.458 5.94067 6.954 5.474 6.646C5.00733 6.338 4.30267 6.184 3.36 6.184H3.038V5.12H3.374C4.23267 5.11067 4.88133 4.97067 5.32 4.7C5.75867 4.42 5.978 3.99067 5.978 3.412C5.978 2.91733 5.81467 2.52067 5.488 2.222C5.17067 1.92333 4.71333 1.774 4.116 1.774C3.53733 1.774 3.07067 1.92333 2.716 2.222C2.36133 2.52067 2.15133 2.922 2.086 3.426H0.84ZM22.9526 1.312V11H21.6786V3.776L18.4586 11H17.5626L14.3286 3.762V11H13.0546V1.312H14.4266L18.0106 9.32L21.5946 1.312H22.9526ZM28.4592 11.126C27.7405 11.126 27.0872 10.9627 26.4992 10.636C25.9205 10.3093 25.4632 9.84733 25.1272 9.25C24.8005 8.64333 24.6372 7.94333 24.6372 7.15C24.6372 6.366 24.8052 5.67533 25.1412 5.078C25.4865 4.47133 25.9532 4.00933 26.5412 3.692C27.1292 3.36533 27.7872 3.202 28.5152 3.202C29.2432 3.202 29.9012 3.36533 30.4892 3.692C31.0772 4.00933 31.5392 4.46667 31.8752 5.064C32.2205 5.66133 32.3932 6.35667 32.3932 7.15C32.3932 7.94333 32.2158 8.64333 31.8612 9.25C31.5158 9.84733 31.0445 10.3093 30.4472 10.636C29.8498 10.9627 29.1872 11.126 28.4592 11.126ZM28.4592 10.006C28.9165 10.006 29.3458 9.89867 29.7472 9.684C30.1485 9.46933 30.4705 9.14733 30.7132 8.718C30.9652 8.28867 31.0912 7.766 31.0912 7.15C31.0912 6.534 30.9698 6.01133 30.7272 5.582C30.4845 5.15267 30.1672 4.83533 29.7752 4.63C29.3832 4.41533 28.9585 4.308 28.5012 4.308C28.0345 4.308 27.6052 4.41533 27.2132 4.63C26.8305 4.83533 26.5225 5.15267 26.2892 5.582C26.0558 6.01133 25.9392 6.534 25.9392 7.15C25.9392 7.77533 26.0512 8.30267 26.2752 8.732C26.5085 9.16133 26.8165 9.48333 27.1992 9.698C27.5818 9.90333 28.0018 10.006 28.4592 10.006ZM37.8062 3.188C38.7396 3.188 39.4956 3.47267 40.0742 4.042C40.6529 4.602 40.9422 5.414 40.9422 6.478V11H39.6822V6.66C39.6822 5.89467 39.4909 5.31133 39.1082 4.91C38.7256 4.49933 38.2029 4.294 37.5402 4.294C36.8682 4.294 36.3316 4.504 35.9302 4.924C35.5382 5.344 35.3422 5.95533 35.3422 6.758V11H34.0682V3.328H35.3422V4.42C35.5942 4.028 35.9349 3.72467 36.3642 3.51C36.8029 3.29533 37.2836 3.188 37.8062 3.188ZM44.5773 4.378V8.9C44.5773 9.27333 44.6566 9.53933 44.8153 9.698C44.974 9.84733 45.2493 9.922 45.6413 9.922H46.5793V11H45.4313C44.722 11 44.19 10.8367 43.8353 10.51C43.4806 10.1833 43.3033 9.64667 43.3033 8.9V4.378H42.3093V3.328H43.3033V1.396H44.5773V3.328H46.5793V4.378H44.5773ZM51.9309 3.188C52.5096 3.188 53.0323 3.314 53.4989 3.566C53.9656 3.80867 54.3296 4.17733 54.5909 4.672C54.8616 5.16667 54.9969 5.76867 54.9969 6.478V11H53.7369V6.66C53.7369 5.89467 53.5456 5.31133 53.1629 4.91C52.7803 4.49933 52.2576 4.294 51.5949 4.294C50.9229 4.294 50.3863 4.504 49.9849 4.924C49.5929 5.344 49.3969 5.95533 49.3969 6.758V11H48.1229V0.64H49.3969V4.42C49.6489 4.028 49.9943 3.72467 50.4329 3.51C50.8809 3.29533 51.3803 3.188 51.9309 3.188ZM59.794 11.126C59.206 11.126 58.6787 11.028 58.212 10.832C57.7453 10.6267 57.3767 10.3467 57.106 9.992C56.8353 9.628 56.686 9.21267 56.658 8.746H57.974C58.0113 9.12867 58.1887 9.44133 58.506 9.684C58.8327 9.92667 59.2573 10.048 59.78 10.048C60.2653 10.048 60.648 9.94067 60.928 9.726C61.208 9.51133 61.348 9.24067 61.348 8.914C61.348 8.578 61.1987 8.33067 60.9 8.172C60.6013 8.004 60.1393 7.84067 59.514 7.682C58.9447 7.53267 58.478 7.38333 58.114 7.234C57.7593 7.07533 57.4513 6.84667 57.19 6.548C56.938 6.24 56.812 5.83867 56.812 5.344C56.812 4.952 56.9287 4.59267 57.162 4.266C57.3953 3.93933 57.7267 3.68267 58.156 3.496C58.5853 3.3 59.0753 3.202 59.626 3.202C60.4753 3.202 61.1613 3.41667 61.684 3.846C62.2067 4.27533 62.4867 4.86333 62.524 5.61H61.25C61.222 5.20867 61.0587 4.88667 60.76 4.644C60.4707 4.40133 60.0787 4.28 59.584 4.28C59.1267 4.28 58.7627 4.378 58.492 4.574C58.2213 4.77 58.086 5.02667 58.086 5.344C58.086 5.596 58.1653 5.806 58.324 5.974C58.492 6.13267 58.6973 6.26333 58.94 6.366C59.192 6.45933 59.5373 6.56667 59.976 6.688C60.5267 6.83733 60.9747 6.98667 61.32 7.136C61.6653 7.276 61.9593 7.49067 62.202 7.78C62.454 8.06933 62.5847 8.44733 62.594 8.914C62.594 9.334 62.4773 9.712 62.244 10.048C62.0107 10.384 61.6793 10.65 61.25 10.846C60.83 11.0327 60.3447 11.126 59.794 11.126Z" fill="#9DA6A5"/>
</svg>
