<svg width="75" height="12" viewBox="0 0 75 12" fill="none" xmlns="http://www.w3.org/2000/svg">
<path d="M0.84 3.426C0.905333 2.56733 1.23667 1.89533 1.834 1.41C2.43133 0.924666 3.206 0.681999 4.158 0.681999C4.79267 0.681999 5.33867 0.798666 5.796 1.032C6.26267 1.256 6.61267 1.564 6.846 1.956C7.08867 2.348 7.21 2.79133 7.21 3.286C7.21 3.86467 7.042 4.364 6.706 4.784C6.37933 5.204 5.95 5.47467 5.418 5.596V5.666C6.02467 5.81533 6.50533 6.10933 6.86 6.548C7.21467 6.98667 7.392 7.56067 7.392 8.27C7.392 8.802 7.27067 9.28267 7.028 9.712C6.78533 10.132 6.42133 10.4633 5.936 10.706C5.45067 10.9487 4.86733 11.07 4.186 11.07C3.19667 11.07 2.38467 10.8133 1.75 10.3C1.11533 9.77733 0.760667 9.04 0.686 8.088H1.918C1.98333 8.648 2.212 9.10533 2.604 9.46C2.996 9.81467 3.51867 9.992 4.172 9.992C4.82533 9.992 5.32 9.824 5.656 9.488C6.00133 9.14267 6.174 8.69933 6.174 8.158C6.174 7.458 5.94067 6.954 5.474 6.646C5.00733 6.338 4.30267 6.184 3.36 6.184H3.038V5.12H3.374C4.23267 5.11067 4.88133 4.97067 5.32 4.7C5.75867 4.42 5.978 3.99067 5.978 3.412C5.978 2.91733 5.81467 2.52067 5.488 2.222C5.17067 1.92333 4.71333 1.774 4.116 1.774C3.53733 1.774 3.07067 1.92333 2.716 2.222C2.36133 2.52067 2.15133 2.922 2.086 3.426H0.84ZM9.11214 5.834C9.11214 4.22867 9.37347 2.978 9.89614 2.082C10.4188 1.17667 11.3335 0.724 12.6401 0.724C13.9375 0.724 14.8475 1.17667 15.3701 2.082C15.8928 2.978 16.1541 4.22867 16.1541 5.834C16.1541 7.46733 15.8928 8.73667 15.3701 9.642C14.8475 10.5473 13.9375 11 12.6401 11C11.3335 11 10.4188 10.5473 9.89614 9.642C9.37347 8.73667 9.11214 7.46733 9.11214 5.834ZM14.8941 5.834C14.8941 5.022 14.8381 4.336 14.7261 3.776C14.6235 3.20667 14.4041 2.74933 14.0681 2.404C13.7415 2.05867 13.2655 1.886 12.6401 1.886C12.0055 1.886 11.5201 2.05867 11.1841 2.404C10.8575 2.74933 10.6381 3.20667 10.5261 3.776C10.4235 4.336 10.3721 5.022 10.3721 5.834C10.3721 6.674 10.4235 7.37867 10.5261 7.948C10.6381 8.51733 10.8575 8.97467 11.1841 9.32C11.5201 9.66533 12.0055 9.838 12.6401 9.838C13.2655 9.838 13.7415 9.66533 14.0681 9.32C14.4041 8.97467 14.6235 8.51733 14.7261 7.948C14.8381 7.37867 14.8941 6.674 14.8941 5.834ZM21.3696 6.114C21.3696 5.162 21.5842 4.308 22.0136 3.552C22.4429 2.78667 23.0262 2.18933 23.7636 1.76C24.5102 1.33067 25.3362 1.116 26.2416 1.116C27.3056 1.116 28.2342 1.37267 29.0276 1.886C29.8209 2.39933 30.3996 3.12733 30.7636 4.07H29.2376C28.9669 3.482 28.5749 3.02933 28.0616 2.712C27.5576 2.39467 26.9509 2.236 26.2416 2.236C25.5602 2.236 24.9489 2.39467 24.4076 2.712C23.8662 3.02933 23.4416 3.482 23.1336 4.07C22.8256 4.64867 22.6716 5.33 22.6716 6.114C22.6716 6.88867 22.8256 7.57 23.1336 8.158C23.4416 8.73667 23.8662 9.18467 24.4076 9.502C24.9489 9.81933 25.5602 9.978 26.2416 9.978C26.9509 9.978 27.5576 9.824 28.0616 9.516C28.5749 9.19867 28.9669 8.746 29.2376 8.158H30.7636C30.3996 9.09133 29.8209 9.81467 29.0276 10.328C28.2342 10.832 27.3056 11.084 26.2416 11.084C25.3362 11.084 24.5102 10.874 23.7636 10.454C23.0262 10.0247 22.4429 9.432 22.0136 8.676C21.5842 7.92 21.3696 7.066 21.3696 6.114ZM33.934 0.64V11H32.66V0.64H33.934ZM35.6293 7.136C35.6293 6.352 35.788 5.666 36.1053 5.078C36.4227 4.48067 36.8567 4.01867 37.4073 3.692C37.9673 3.36533 38.588 3.202 39.2693 3.202C39.9413 3.202 40.5247 3.34667 41.0193 3.636C41.514 3.92533 41.8827 4.28933 42.1253 4.728V3.328H43.4133V11H42.1253V9.572C41.8733 10.02 41.4953 10.3933 40.9913 10.692C40.4967 10.9813 39.918 11.126 39.2553 11.126C38.574 11.126 37.958 10.958 37.4073 10.622C36.8567 10.286 36.4227 9.81467 36.1053 9.208C35.788 8.60133 35.6293 7.91067 35.6293 7.136ZM42.1253 7.15C42.1253 6.57133 42.0087 6.06733 41.7753 5.638C41.542 5.20867 41.2247 4.882 40.8233 4.658C40.4313 4.42467 39.9973 4.308 39.5213 4.308C39.0453 4.308 38.6113 4.42 38.2193 4.644C37.8273 4.868 37.5147 5.19467 37.2813 5.624C37.048 6.05333 36.9313 6.55733 36.9313 7.136C36.9313 7.724 37.048 8.23733 37.2813 8.676C37.5147 9.10533 37.8273 9.43667 38.2193 9.67C38.6113 9.894 39.0453 10.006 39.5213 10.006C39.9973 10.006 40.4313 9.894 40.8233 9.67C41.2247 9.43667 41.542 9.10533 41.7753 8.676C42.0087 8.23733 42.1253 7.72867 42.1253 7.15ZM48.2823 11.126C47.6943 11.126 47.1669 11.028 46.7003 10.832C46.2336 10.6267 45.8649 10.3467 45.5943 9.992C45.3236 9.628 45.1743 9.21267 45.1463 8.746H46.4623C46.4996 9.12867 46.6769 9.44133 46.9943 9.684C47.3209 9.92667 47.7456 10.048 48.2683 10.048C48.7536 10.048 49.1363 9.94067 49.4163 9.726C49.6963 9.51133 49.8363 9.24067 49.8363 8.914C49.8363 8.578 49.6869 8.33067 49.3883 8.172C49.0896 8.004 48.6276 7.84067 48.0023 7.682C47.4329 7.53267 46.9663 7.38333 46.6023 7.234C46.2476 7.07533 45.9396 6.84667 45.6783 6.548C45.4263 6.24 45.3003 5.83867 45.3003 5.344C45.3003 4.952 45.4169 4.59267 45.6503 4.266C45.8836 3.93933 46.2149 3.68267 46.6443 3.496C47.0736 3.3 47.5636 3.202 48.1143 3.202C48.9636 3.202 49.6496 3.41667 50.1723 3.846C50.6949 4.27533 50.9749 4.86333 51.0123 5.61H49.7383C49.7103 5.20867 49.5469 4.88667 49.2483 4.644C48.9589 4.40133 48.5669 4.28 48.0723 4.28C47.6149 4.28 47.2509 4.378 46.9803 4.574C46.7096 4.77 46.5743 5.02667 46.5743 5.344C46.5743 5.596 46.6536 5.806 46.8123 5.974C46.9803 6.13267 47.1856 6.26333 47.4283 6.366C47.6803 6.45933 48.0256 6.56667 48.4643 6.688C49.0149 6.83733 49.4629 6.98667 49.8083 7.136C50.1536 7.276 50.4476 7.49067 50.6903 7.78C50.9423 8.06933 51.0729 8.44733 51.0823 8.914C51.0823 9.334 50.9656 9.712 50.7323 10.048C50.4989 10.384 50.1676 10.65 49.7383 10.846C49.3183 11.0327 48.8329 11.126 48.2823 11.126ZM55.5967 11.126C55.0087 11.126 54.4814 11.028 54.0147 10.832C53.5481 10.6267 53.1794 10.3467 52.9087 9.992C52.6381 9.628 52.4887 9.21267 52.4607 8.746H53.7767C53.8141 9.12867 53.9914 9.44133 54.3087 9.684C54.6354 9.92667 55.0601 10.048 55.5827 10.048C56.0681 10.048 56.4507 9.94067 56.7307 9.726C57.0107 9.51133 57.1507 9.24067 57.1507 8.914C57.1507 8.578 57.0014 8.33067 56.7027 8.172C56.4041 8.004 55.9421 7.84067 55.3167 7.682C54.7474 7.53267 54.2807 7.38333 53.9167 7.234C53.5621 7.07533 53.2541 6.84667 52.9927 6.548C52.7407 6.24 52.6147 5.83867 52.6147 5.344C52.6147 4.952 52.7314 4.59267 52.9647 4.266C53.1981 3.93933 53.5294 3.68267 53.9587 3.496C54.3881 3.3 54.8781 3.202 55.4287 3.202C56.2781 3.202 56.9641 3.41667 57.4867 3.846C58.0094 4.27533 58.2894 4.86333 58.3267 5.61H57.0527C57.0247 5.20867 56.8614 4.88667 56.5627 4.644C56.2734 4.40133 55.8814 4.28 55.3867 4.28C54.9294 4.28 54.5654 4.378 54.2947 4.574C54.0241 4.77 53.8887 5.02667 53.8887 5.344C53.8887 5.596 53.9681 5.806 54.1267 5.974C54.2947 6.13267 54.5001 6.26333 54.7427 6.366C54.9947 6.45933 55.3401 6.56667 55.7787 6.688C56.3294 6.83733 56.7774 6.98667 57.1227 7.136C57.4681 7.276 57.7621 7.49067 58.0047 7.78C58.2567 8.06933 58.3874 8.44733 58.3967 8.914C58.3967 9.334 58.2801 9.712 58.0467 10.048C57.8134 10.384 57.4821 10.65 57.0527 10.846C56.6327 11.0327 56.1474 11.126 55.5967 11.126ZM67.1952 6.87C67.1952 7.11267 67.1812 7.36933 67.1532 7.64H61.0212C61.0679 8.396 61.3245 8.98867 61.7912 9.418C62.2672 9.838 62.8412 10.048 63.5132 10.048C64.0639 10.048 64.5212 9.922 64.8852 9.67C65.2585 9.40867 65.5199 9.06333 65.6692 8.634H67.0412C66.8359 9.37133 66.4252 9.97333 65.8092 10.44C65.1932 10.8973 64.4279 11.126 63.5132 11.126C62.7852 11.126 62.1319 10.9627 61.5532 10.636C60.9839 10.3093 60.5359 9.84733 60.2092 9.25C59.8825 8.64333 59.7192 7.94333 59.7192 7.15C59.7192 6.35667 59.8779 5.66133 60.1952 5.064C60.5125 4.46667 60.9559 4.00933 61.5252 3.692C62.1039 3.36533 62.7665 3.202 63.5132 3.202C64.2412 3.202 64.8852 3.36067 65.4452 3.678C66.0052 3.99533 66.4345 4.434 66.7332 4.994C67.0412 5.54467 67.1952 6.17 67.1952 6.87ZM65.8792 6.604C65.8792 6.11867 65.7719 5.70333 65.5572 5.358C65.3425 5.00333 65.0485 4.73733 64.6752 4.56C64.3112 4.37333 63.9052 4.28 63.4572 4.28C62.8132 4.28 62.2625 4.48533 61.8052 4.896C61.3572 5.30667 61.1005 5.876 61.0352 6.604H65.8792ZM71.5928 11.126C71.0048 11.126 70.4775 11.028 70.0108 10.832C69.5442 10.6267 69.1755 10.3467 68.9048 9.992C68.6342 9.628 68.4848 9.21267 68.4568 8.746H69.7728C69.8102 9.12867 69.9875 9.44133 70.3048 9.684C70.6315 9.92667 71.0562 10.048 71.5788 10.048C72.0642 10.048 72.4468 9.94067 72.7268 9.726C73.0068 9.51133 73.1468 9.24067 73.1468 8.914C73.1468 8.578 72.9975 8.33067 72.6988 8.172C72.4002 8.004 71.9382 7.84067 71.3128 7.682C70.7435 7.53267 70.2768 7.38333 69.9128 7.234C69.5582 7.07533 69.2502 6.84667 68.9888 6.548C68.7368 6.24 68.6108 5.83867 68.6108 5.344C68.6108 4.952 68.7275 4.59267 68.9608 4.266C69.1942 3.93933 69.5255 3.68267 69.9548 3.496C70.3842 3.3 70.8742 3.202 71.4248 3.202C72.2742 3.202 72.9602 3.41667 73.4828 3.846C74.0055 4.27533 74.2855 4.86333 74.3228 5.61H73.0488C73.0208 5.20867 72.8575 4.88667 72.5588 4.644C72.2695 4.40133 71.8775 4.28 71.3828 4.28C70.9255 4.28 70.5615 4.378 70.2908 4.574C70.0202 4.77 69.8848 5.02667 69.8848 5.344C69.8848 5.596 69.9642 5.806 70.1228 5.974C70.2908 6.13267 70.4962 6.26333 70.7388 6.366C70.9908 6.45933 71.3362 6.56667 71.7748 6.688C72.3255 6.83733 72.7735 6.98667 73.1188 7.136C73.4642 7.276 73.7582 7.49067 74.0008 7.78C74.2528 8.06933 74.3835 8.44733 74.3928 8.914C74.3928 9.334 74.2762 9.712 74.0428 10.048C73.8095 10.384 73.4782 10.65 73.0488 10.846C72.6288 11.0327 72.1435 11.126 71.5928 11.126Z" fill="#9DA6A5"/>
</svg>
