<svg width="64" height="12" viewBox="0 0 64 12" fill="none" xmlns="http://www.w3.org/2000/svg">
<path d="M0.56 8.746V7.78L5.474 0.976H7V7.64H8.4V8.746H7V11H5.74V8.746H0.56ZM5.796 2.306L2.03 7.64H5.796V2.306ZM23.5131 1.312V11H22.2391V3.776L19.0191 11H18.1231L14.8891 3.762V11H13.6151V1.312H14.9871L18.5711 9.32L22.1551 1.312H23.5131ZM29.0197 11.126C28.301 11.126 27.6477 10.9627 27.0597 10.636C26.481 10.3093 26.0237 9.84733 25.6877 9.25C25.361 8.64333 25.1977 7.94333 25.1977 7.15C25.1977 6.366 25.3657 5.67533 25.7017 5.078C26.047 4.47133 26.5137 4.00933 27.1017 3.692C27.6897 3.36533 28.3477 3.202 29.0757 3.202C29.8037 3.202 30.4617 3.36533 31.0497 3.692C31.6377 4.00933 32.0997 4.46667 32.4357 5.064C32.781 5.66133 32.9537 6.35667 32.9537 7.15C32.9537 7.94333 32.7764 8.64333 32.4217 9.25C32.0764 9.84733 31.605 10.3093 31.0077 10.636C30.4104 10.9627 29.7477 11.126 29.0197 11.126ZM29.0197 10.006C29.477 10.006 29.9064 9.89867 30.3077 9.684C30.709 9.46933 31.031 9.14733 31.2737 8.718C31.5257 8.28867 31.6517 7.766 31.6517 7.15C31.6517 6.534 31.5304 6.01133 31.2877 5.582C31.045 5.15267 30.7277 4.83533 30.3357 4.63C29.9437 4.41533 29.519 4.308 29.0617 4.308C28.595 4.308 28.1657 4.41533 27.7737 4.63C27.391 4.83533 27.083 5.15267 26.8497 5.582C26.6164 6.01133 26.4997 6.534 26.4997 7.15C26.4997 7.77533 26.6117 8.30267 26.8357 8.732C27.069 9.16133 27.377 9.48333 27.7597 9.698C28.1424 9.90333 28.5624 10.006 29.0197 10.006ZM38.3668 3.188C39.3001 3.188 40.0561 3.47267 40.6348 4.042C41.2134 4.602 41.5028 5.414 41.5028 6.478V11H40.2428V6.66C40.2428 5.89467 40.0514 5.31133 39.6688 4.91C39.2861 4.49933 38.7634 4.294 38.1008 4.294C37.4288 4.294 36.8921 4.504 36.4908 4.924C36.0988 5.344 35.9028 5.95533 35.9028 6.758V11H34.6288V3.328H35.9028V4.42C36.1548 4.028 36.4954 3.72467 36.9248 3.51C37.3634 3.29533 37.8441 3.188 38.3668 3.188ZM45.1379 4.378V8.9C45.1379 9.27333 45.2172 9.53933 45.3759 9.698C45.5345 9.84733 45.8099 9.922 46.2019 9.922H47.1399V11H45.9919C45.2825 11 44.7505 10.8367 44.3959 10.51C44.0412 10.1833 43.8639 9.64667 43.8639 8.9V4.378H42.8699V3.328H43.8639V1.396H45.1379V3.328H47.1399V4.378H45.1379ZM52.4915 3.188C53.0701 3.188 53.5928 3.314 54.0595 3.566C54.5261 3.80867 54.8901 4.17733 55.1515 4.672C55.4221 5.16667 55.5575 5.76867 55.5575 6.478V11H54.2975V6.66C54.2975 5.89467 54.1061 5.31133 53.7235 4.91C53.3408 4.49933 52.8181 4.294 52.1555 4.294C51.4835 4.294 50.9468 4.504 50.5455 4.924C50.1535 5.344 49.9575 5.95533 49.9575 6.758V11H48.6835V0.64H49.9575V4.42C50.2095 4.028 50.5548 3.72467 50.9935 3.51C51.4415 3.29533 51.9408 3.188 52.4915 3.188ZM60.3545 11.126C59.7665 11.126 59.2392 11.028 58.7725 10.832C58.3059 10.6267 57.9372 10.3467 57.6665 9.992C57.3959 9.628 57.2465 9.21267 57.2185 8.746H58.5345C58.5719 9.12867 58.7492 9.44133 59.0665 9.684C59.3932 9.92667 59.8179 10.048 60.3405 10.048C60.8259 10.048 61.2085 9.94067 61.4885 9.726C61.7685 9.51133 61.9085 9.24067 61.9085 8.914C61.9085 8.578 61.7592 8.33067 61.4605 8.172C61.1619 8.004 60.6999 7.84067 60.0745 7.682C59.5052 7.53267 59.0385 7.38333 58.6745 7.234C58.3199 7.07533 58.0119 6.84667 57.7505 6.548C57.4985 6.24 57.3725 5.83867 57.3725 5.344C57.3725 4.952 57.4892 4.59267 57.7225 4.266C57.9559 3.93933 58.2872 3.68267 58.7165 3.496C59.1459 3.3 59.6359 3.202 60.1865 3.202C61.0359 3.202 61.7219 3.41667 62.2445 3.846C62.7672 4.27533 63.0472 4.86333 63.0845 5.61H61.8105C61.7825 5.20867 61.6192 4.88667 61.3205 4.644C61.0312 4.40133 60.6392 4.28 60.1445 4.28C59.6872 4.28 59.3232 4.378 59.0525 4.574C58.7819 4.77 58.6465 5.02667 58.6465 5.344C58.6465 5.596 58.7259 5.806 58.8845 5.974C59.0525 6.13267 59.2579 6.26333 59.5005 6.366C59.7525 6.45933 60.0979 6.56667 60.5365 6.688C61.0872 6.83733 61.5352 6.98667 61.8805 7.136C62.2259 7.276 62.5199 7.49067 62.7625 7.78C63.0145 8.06933 63.1452 8.44733 63.1545 8.914C63.1545 9.334 63.0379 9.712 62.8045 10.048C62.5712 10.384 62.2399 10.65 61.8105 10.846C61.3905 11.0327 60.9052 11.126 60.3545 11.126Z" fill="#9DA6A5"/>
</svg>
