<svg width="75" height="12" viewBox="0 0 75 12" fill="none" xmlns="http://www.w3.org/2000/svg">
<path d="M0.56 8.746V7.78L5.474 0.976H7V7.64H8.4V8.746H7V11H5.74V8.746H0.56ZM5.796 2.306L2.03 7.64H5.796V2.306ZM9.67269 5.834C9.67269 4.22867 9.93402 2.978 10.4567 2.082C10.9794 1.17667 11.894 0.724 13.2007 0.724C14.498 0.724 15.408 1.17667 15.9307 2.082C16.4534 2.978 16.7147 4.22867 16.7147 5.834C16.7147 7.46733 16.4534 8.73667 15.9307 9.642C15.408 10.5473 14.498 11 13.2007 11C11.894 11 10.9794 10.5473 10.4567 9.642C9.93402 8.73667 9.67269 7.46733 9.67269 5.834ZM15.4547 5.834C15.4547 5.022 15.3987 4.336 15.2867 3.776C15.184 3.20667 14.9647 2.74933 14.6287 2.404C14.302 2.05867 13.826 1.886 13.2007 1.886C12.566 1.886 12.0807 2.05867 11.7447 2.404C11.418 2.74933 11.1987 3.20667 11.0867 3.776C10.984 4.336 10.9327 5.022 10.9327 5.834C10.9327 6.674 10.984 7.37867 11.0867 7.948C11.1987 8.51733 11.418 8.97467 11.7447 9.32C12.0807 9.66533 12.566 9.838 13.2007 9.838C13.826 9.838 14.302 9.66533 14.6287 9.32C14.9647 8.97467 15.184 8.51733 15.2867 7.948C15.3987 7.37867 15.4547 6.674 15.4547 5.834ZM21.9301 6.114C21.9301 5.162 22.1448 4.308 22.5741 3.552C23.0035 2.78667 23.5868 2.18933 24.3241 1.76C25.0708 1.33067 25.8968 1.116 26.8021 1.116C27.8661 1.116 28.7948 1.37267 29.5881 1.886C30.3815 2.39933 30.9601 3.12733 31.3241 4.07H29.7981C29.5275 3.482 29.1355 3.02933 28.6221 2.712C28.1181 2.39467 27.5115 2.236 26.8021 2.236C26.1208 2.236 25.5095 2.39467 24.9681 2.712C24.4268 3.02933 24.0021 3.482 23.6941 4.07C23.3861 4.64867 23.2321 5.33 23.2321 6.114C23.2321 6.88867 23.3861 7.57 23.6941 8.158C24.0021 8.73667 24.4268 9.18467 24.9681 9.502C25.5095 9.81933 26.1208 9.978 26.8021 9.978C27.5115 9.978 28.1181 9.824 28.6221 9.516C29.1355 9.19867 29.5275 8.746 29.7981 8.158H31.3241C30.9601 9.09133 30.3815 9.81467 29.5881 10.328C28.7948 10.832 27.8661 11.084 26.8021 11.084C25.8968 11.084 25.0708 10.874 24.3241 10.454C23.5868 10.0247 23.0035 9.432 22.5741 8.676C22.1448 7.92 21.9301 7.066 21.9301 6.114ZM34.4946 0.64V11H33.2206V0.64H34.4946ZM36.1899 7.136C36.1899 6.352 36.3486 5.666 36.6659 5.078C36.9832 4.48067 37.4172 4.01867 37.9679 3.692C38.5279 3.36533 39.1486 3.202 39.8299 3.202C40.5019 3.202 41.0852 3.34667 41.5799 3.636C42.0746 3.92533 42.4432 4.28933 42.6859 4.728V3.328H43.9739V11H42.6859V9.572C42.4339 10.02 42.0559 10.3933 41.5519 10.692C41.0572 10.9813 40.4786 11.126 39.8159 11.126C39.1346 11.126 38.5186 10.958 37.9679 10.622C37.4172 10.286 36.9832 9.81467 36.6659 9.208C36.3486 8.60133 36.1899 7.91067 36.1899 7.136ZM42.6859 7.15C42.6859 6.57133 42.5692 6.06733 42.3359 5.638C42.1026 5.20867 41.7852 4.882 41.3839 4.658C40.9919 4.42467 40.5579 4.308 40.0819 4.308C39.6059 4.308 39.1719 4.42 38.7799 4.644C38.3879 4.868 38.0752 5.19467 37.8419 5.624C37.6086 6.05333 37.4919 6.55733 37.4919 7.136C37.4919 7.724 37.6086 8.23733 37.8419 8.676C38.0752 9.10533 38.3879 9.43667 38.7799 9.67C39.1719 9.894 39.6059 10.006 40.0819 10.006C40.5579 10.006 40.9919 9.894 41.3839 9.67C41.7852 9.43667 42.1026 9.10533 42.3359 8.676C42.5692 8.23733 42.6859 7.72867 42.6859 7.15ZM48.8428 11.126C48.2548 11.126 47.7275 11.028 47.2608 10.832C46.7942 10.6267 46.4255 10.3467 46.1548 9.992C45.8842 9.628 45.7348 9.21267 45.7068 8.746H47.0228C47.0602 9.12867 47.2375 9.44133 47.5548 9.684C47.8815 9.92667 48.3062 10.048 48.8288 10.048C49.3142 10.048 49.6968 9.94067 49.9768 9.726C50.2568 9.51133 50.3968 9.24067 50.3968 8.914C50.3968 8.578 50.2475 8.33067 49.9488 8.172C49.6502 8.004 49.1882 7.84067 48.5628 7.682C47.9935 7.53267 47.5268 7.38333 47.1628 7.234C46.8082 7.07533 46.5002 6.84667 46.2388 6.548C45.9868 6.24 45.8608 5.83867 45.8608 5.344C45.8608 4.952 45.9775 4.59267 46.2108 4.266C46.4442 3.93933 46.7755 3.68267 47.2048 3.496C47.6342 3.3 48.1242 3.202 48.6748 3.202C49.5242 3.202 50.2102 3.41667 50.7328 3.846C51.2555 4.27533 51.5355 4.86333 51.5728 5.61H50.2988C50.2708 5.20867 50.1075 4.88667 49.8088 4.644C49.5195 4.40133 49.1275 4.28 48.6328 4.28C48.1755 4.28 47.8115 4.378 47.5408 4.574C47.2702 4.77 47.1348 5.02667 47.1348 5.344C47.1348 5.596 47.2142 5.806 47.3728 5.974C47.5408 6.13267 47.7462 6.26333 47.9888 6.366C48.2408 6.45933 48.5862 6.56667 49.0248 6.688C49.5755 6.83733 50.0235 6.98667 50.3688 7.136C50.7142 7.276 51.0082 7.49067 51.2508 7.78C51.5028 8.06933 51.6335 8.44733 51.6428 8.914C51.6428 9.334 51.5262 9.712 51.2928 10.048C51.0595 10.384 50.7282 10.65 50.2988 10.846C49.8788 11.0327 49.3935 11.126 48.8428 11.126ZM56.1573 11.126C55.5693 11.126 55.0419 11.028 54.5753 10.832C54.1086 10.6267 53.7399 10.3467 53.4693 9.992C53.1986 9.628 53.0493 9.21267 53.0213 8.746H54.3373C54.3746 9.12867 54.5519 9.44133 54.8693 9.684C55.1959 9.92667 55.6206 10.048 56.1433 10.048C56.6286 10.048 57.0113 9.94067 57.2913 9.726C57.5713 9.51133 57.7113 9.24067 57.7113 8.914C57.7113 8.578 57.5619 8.33067 57.2633 8.172C56.9646 8.004 56.5026 7.84067 55.8773 7.682C55.3079 7.53267 54.8413 7.38333 54.4773 7.234C54.1226 7.07533 53.8146 6.84667 53.5533 6.548C53.3013 6.24 53.1753 5.83867 53.1753 5.344C53.1753 4.952 53.2919 4.59267 53.5253 4.266C53.7586 3.93933 54.0899 3.68267 54.5193 3.496C54.9486 3.3 55.4386 3.202 55.9893 3.202C56.8386 3.202 57.5246 3.41667 58.0473 3.846C58.5699 4.27533 58.8499 4.86333 58.8873 5.61H57.6133C57.5853 5.20867 57.4219 4.88667 57.1233 4.644C56.8339 4.40133 56.4419 4.28 55.9473 4.28C55.4899 4.28 55.1259 4.378 54.8553 4.574C54.5846 4.77 54.4493 5.02667 54.4493 5.344C54.4493 5.596 54.5286 5.806 54.6873 5.974C54.8553 6.13267 55.0606 6.26333 55.3033 6.366C55.5553 6.45933 55.9006 6.56667 56.3393 6.688C56.8899 6.83733 57.3379 6.98667 57.6833 7.136C58.0286 7.276 58.3226 7.49067 58.5653 7.78C58.8173 8.06933 58.9479 8.44733 58.9573 8.914C58.9573 9.334 58.8406 9.712 58.6073 10.048C58.3739 10.384 58.0426 10.65 57.6133 10.846C57.1933 11.0327 56.7079 11.126 56.1573 11.126ZM67.7557 6.87C67.7557 7.11267 67.7417 7.36933 67.7137 7.64H61.5817C61.6284 8.396 61.8851 8.98867 62.3517 9.418C62.8277 9.838 63.4017 10.048 64.0737 10.048C64.6244 10.048 65.0817 9.922 65.4457 9.67C65.8191 9.40867 66.0804 9.06333 66.2297 8.634H67.6017C67.3964 9.37133 66.9857 9.97333 66.3697 10.44C65.7537 10.8973 64.9884 11.126 64.0737 11.126C63.3457 11.126 62.6924 10.9627 62.1137 10.636C61.5444 10.3093 61.0964 9.84733 60.7697 9.25C60.4431 8.64333 60.2797 7.94333 60.2797 7.15C60.2797 6.35667 60.4384 5.66133 60.7557 5.064C61.0731 4.46667 61.5164 4.00933 62.0857 3.692C62.6644 3.36533 63.3271 3.202 64.0737 3.202C64.8017 3.202 65.4457 3.36067 66.0057 3.678C66.5657 3.99533 66.9951 4.434 67.2937 4.994C67.6017 5.54467 67.7557 6.17 67.7557 6.87ZM66.4397 6.604C66.4397 6.11867 66.3324 5.70333 66.1177 5.358C65.9031 5.00333 65.6091 4.73733 65.2357 4.56C64.8717 4.37333 64.4657 4.28 64.0177 4.28C63.3737 4.28 62.8231 4.48533 62.3657 4.896C61.9177 5.30667 61.6611 5.876 61.5957 6.604H66.4397ZM72.1534 11.126C71.5654 11.126 71.038 11.028 70.5714 10.832C70.1047 10.6267 69.736 10.3467 69.4654 9.992C69.1947 9.628 69.0454 9.21267 69.0174 8.746H70.3334C70.3707 9.12867 70.548 9.44133 70.8654 9.684C71.192 9.92667 71.6167 10.048 72.1394 10.048C72.6247 10.048 73.0074 9.94067 73.2874 9.726C73.5674 9.51133 73.7074 9.24067 73.7074 8.914C73.7074 8.578 73.558 8.33067 73.2594 8.172C72.9607 8.004 72.4987 7.84067 71.8734 7.682C71.304 7.53267 70.8374 7.38333 70.4734 7.234C70.1187 7.07533 69.8107 6.84667 69.5494 6.548C69.2974 6.24 69.1714 5.83867 69.1714 5.344C69.1714 4.952 69.288 4.59267 69.5214 4.266C69.7547 3.93933 70.086 3.68267 70.5154 3.496C70.9447 3.3 71.4347 3.202 71.9854 3.202C72.8347 3.202 73.5207 3.41667 74.0434 3.846C74.566 4.27533 74.846 4.86333 74.8834 5.61H73.6094C73.5814 5.20867 73.418 4.88667 73.1194 4.644C72.83 4.40133 72.438 4.28 71.9434 4.28C71.486 4.28 71.122 4.378 70.8514 4.574C70.5807 4.77 70.4454 5.02667 70.4454 5.344C70.4454 5.596 70.5247 5.806 70.6834 5.974C70.8514 6.13267 71.0567 6.26333 71.2994 6.366C71.5514 6.45933 71.8967 6.56667 72.3354 6.688C72.886 6.83733 73.334 6.98667 73.6794 7.136C74.0247 7.276 74.3187 7.49067 74.5614 7.78C74.8134 8.06933 74.944 8.44733 74.9534 8.914C74.9534 9.334 74.8367 9.712 74.6034 10.048C74.37 10.384 74.0387 10.65 73.6094 10.846C73.1894 11.0327 72.704 11.126 72.1534 11.126Z" fill="#9DA6A5"/>
</svg>
