<svg width="74" height="12" viewBox="0 0 74 12" fill="none" xmlns="http://www.w3.org/2000/svg">
<path d="M6.322 1.984H1.408V5.176C1.62267 4.87733 1.94 4.63467 2.36 4.448C2.78 4.252 3.23267 4.154 3.718 4.154C4.49267 4.154 5.12267 4.31733 5.608 4.644C6.09333 4.96133 6.43867 5.37667 6.644 5.89C6.85867 6.394 6.966 6.93067 6.966 7.5C6.966 8.172 6.84 8.774 6.588 9.306C6.336 9.838 5.94867 10.258 5.426 10.566C4.91267 10.874 4.27333 11.028 3.508 11.028C2.528 11.028 1.73467 10.776 1.128 10.272C0.521333 9.768 0.152667 9.096 0.0220001 8.256H1.268C1.38933 8.788 1.646 9.20333 2.038 9.502C2.43 9.80067 2.92467 9.95 3.522 9.95C4.25933 9.95 4.81467 9.73067 5.188 9.292C5.56133 8.844 5.748 8.256 5.748 7.528C5.748 6.8 5.56133 6.24 5.188 5.848C4.81467 5.44667 4.264 5.246 3.536 5.246C3.04133 5.246 2.60733 5.36733 2.234 5.61C1.87 5.84333 1.604 6.16533 1.436 6.576H0.232V0.863999H6.322V1.984ZM8.65902 5.834C8.65902 4.22867 8.92035 2.978 9.44302 2.082C9.96568 1.17667 10.8803 0.724 12.187 0.724C13.4843 0.724 14.3943 1.17667 14.917 2.082C15.4397 2.978 15.701 4.22867 15.701 5.834C15.701 7.46733 15.4397 8.73667 14.917 9.642C14.3943 10.5473 13.4843 11 12.187 11C10.8803 11 9.96568 10.5473 9.44302 9.642C8.92035 8.73667 8.65902 7.46733 8.65902 5.834ZM14.441 5.834C14.441 5.022 14.385 4.336 14.273 3.776C14.1703 3.20667 13.951 2.74933 13.615 2.404C13.2883 2.05867 12.8123 1.886 12.187 1.886C11.5523 1.886 11.067 2.05867 10.731 2.404C10.4043 2.74933 10.185 3.20667 10.073 3.776C9.97035 4.336 9.91902 5.022 9.91902 5.834C9.91902 6.674 9.97035 7.37867 10.073 7.948C10.185 8.51733 10.4043 8.97467 10.731 9.32C11.067 9.66533 11.5523 9.838 12.187 9.838C12.8123 9.838 13.2883 9.66533 13.615 9.32C13.951 8.97467 14.1703 8.51733 14.273 7.948C14.385 7.37867 14.441 6.674 14.441 5.834ZM20.9165 6.114C20.9165 5.162 21.1311 4.308 21.5605 3.552C21.9898 2.78667 22.5731 2.18933 23.3105 1.76C24.0571 1.33067 24.8831 1.116 25.7885 1.116C26.8525 1.116 27.7811 1.37267 28.5745 1.886C29.3678 2.39933 29.9465 3.12733 30.3105 4.07H28.7845C28.5138 3.482 28.1218 3.02933 27.6085 2.712C27.1045 2.39467 26.4978 2.236 25.7885 2.236C25.1071 2.236 24.4958 2.39467 23.9545 2.712C23.4131 3.02933 22.9885 3.482 22.6805 4.07C22.3725 4.64867 22.2185 5.33 22.2185 6.114C22.2185 6.88867 22.3725 7.57 22.6805 8.158C22.9885 8.73667 23.4131 9.18467 23.9545 9.502C24.4958 9.81933 25.1071 9.978 25.7885 9.978C26.4978 9.978 27.1045 9.824 27.6085 9.516C28.1218 9.19867 28.5138 8.746 28.7845 8.158H30.3105C29.9465 9.09133 29.3678 9.81467 28.5745 10.328C27.7811 10.832 26.8525 11.084 25.7885 11.084C24.8831 11.084 24.0571 10.874 23.3105 10.454C22.5731 10.0247 21.9898 9.432 21.5605 8.676C21.1311 7.92 20.9165 7.066 20.9165 6.114ZM33.4809 0.64V11H32.2069V0.64H33.4809ZM35.1762 7.136C35.1762 6.352 35.3349 5.666 35.6522 5.078C35.9696 4.48067 36.4036 4.01867 36.9542 3.692C37.5142 3.36533 38.1349 3.202 38.8162 3.202C39.4882 3.202 40.0716 3.34667 40.5662 3.636C41.0609 3.92533 41.4296 4.28933 41.6722 4.728V3.328H42.9602V11H41.6722V9.572C41.4202 10.02 41.0422 10.3933 40.5382 10.692C40.0436 10.9813 39.4649 11.126 38.8022 11.126C38.1209 11.126 37.5049 10.958 36.9542 10.622C36.4036 10.286 35.9696 9.81467 35.6522 9.208C35.3349 8.60133 35.1762 7.91067 35.1762 7.136ZM41.6722 7.15C41.6722 6.57133 41.5556 6.06733 41.3222 5.638C41.0889 5.20867 40.7716 4.882 40.3702 4.658C39.9782 4.42467 39.5442 4.308 39.0682 4.308C38.5922 4.308 38.1582 4.42 37.7662 4.644C37.3742 4.868 37.0616 5.19467 36.8282 5.624C36.5949 6.05333 36.4782 6.55733 36.4782 7.136C36.4782 7.724 36.5949 8.23733 36.8282 8.676C37.0616 9.10533 37.3742 9.43667 37.7662 9.67C38.1582 9.894 38.5922 10.006 39.0682 10.006C39.5442 10.006 39.9782 9.894 40.3702 9.67C40.7716 9.43667 41.0889 9.10533 41.3222 8.676C41.5556 8.23733 41.6722 7.72867 41.6722 7.15ZM47.8292 11.126C47.2412 11.126 46.7138 11.028 46.2472 10.832C45.7805 10.6267 45.4118 10.3467 45.1412 9.992C44.8705 9.628 44.7212 9.21267 44.6932 8.746H46.0092C46.0465 9.12867 46.2238 9.44133 46.5412 9.684C46.8678 9.92667 47.2925 10.048 47.8152 10.048C48.3005 10.048 48.6832 9.94067 48.9632 9.726C49.2432 9.51133 49.3832 9.24067 49.3832 8.914C49.3832 8.578 49.2338 8.33067 48.9352 8.172C48.6365 8.004 48.1745 7.84067 47.5492 7.682C46.9798 7.53267 46.5132 7.38333 46.1492 7.234C45.7945 7.07533 45.4865 6.84667 45.2252 6.548C44.9732 6.24 44.8472 5.83867 44.8472 5.344C44.8472 4.952 44.9638 4.59267 45.1972 4.266C45.4305 3.93933 45.7618 3.68267 46.1912 3.496C46.6205 3.3 47.1105 3.202 47.6612 3.202C48.5105 3.202 49.1965 3.41667 49.7192 3.846C50.2418 4.27533 50.5218 4.86333 50.5592 5.61H49.2852C49.2572 5.20867 49.0938 4.88667 48.7952 4.644C48.5058 4.40133 48.1138 4.28 47.6192 4.28C47.1618 4.28 46.7978 4.378 46.5272 4.574C46.2565 4.77 46.1212 5.02667 46.1212 5.344C46.1212 5.596 46.2005 5.806 46.3592 5.974C46.5272 6.13267 46.7325 6.26333 46.9752 6.366C47.2272 6.45933 47.5725 6.56667 48.0112 6.688C48.5618 6.83733 49.0098 6.98667 49.3552 7.136C49.7005 7.276 49.9945 7.49067 50.2372 7.78C50.4892 8.06933 50.6198 8.44733 50.6292 8.914C50.6292 9.334 50.5125 9.712 50.2792 10.048C50.0458 10.384 49.7145 10.65 49.2852 10.846C48.8652 11.0327 48.3798 11.126 47.8292 11.126ZM55.1436 11.126C54.5556 11.126 54.0283 11.028 53.5616 10.832C53.0949 10.6267 52.7263 10.3467 52.4556 9.992C52.1849 9.628 52.0356 9.21267 52.0076 8.746H53.3236C53.3609 9.12867 53.5383 9.44133 53.8556 9.684C54.1823 9.92667 54.6069 10.048 55.1296 10.048C55.6149 10.048 55.9976 9.94067 56.2776 9.726C56.5576 9.51133 56.6976 9.24067 56.6976 8.914C56.6976 8.578 56.5483 8.33067 56.2496 8.172C55.9509 8.004 55.4889 7.84067 54.8636 7.682C54.2943 7.53267 53.8276 7.38333 53.4636 7.234C53.1089 7.07533 52.8009 6.84667 52.5396 6.548C52.2876 6.24 52.1616 5.83867 52.1616 5.344C52.1616 4.952 52.2783 4.59267 52.5116 4.266C52.7449 3.93933 53.0763 3.68267 53.5056 3.496C53.9349 3.3 54.4249 3.202 54.9756 3.202C55.8249 3.202 56.5109 3.41667 57.0336 3.846C57.5563 4.27533 57.8363 4.86333 57.8736 5.61H56.5996C56.5716 5.20867 56.4083 4.88667 56.1096 4.644C55.8203 4.40133 55.4283 4.28 54.9336 4.28C54.4763 4.28 54.1123 4.378 53.8416 4.574C53.5709 4.77 53.4356 5.02667 53.4356 5.344C53.4356 5.596 53.5149 5.806 53.6736 5.974C53.8416 6.13267 54.0469 6.26333 54.2896 6.366C54.5416 6.45933 54.8869 6.56667 55.3256 6.688C55.8763 6.83733 56.3243 6.98667 56.6696 7.136C57.0149 7.276 57.3089 7.49067 57.5516 7.78C57.8036 8.06933 57.9343 8.44733 57.9436 8.914C57.9436 9.334 57.8269 9.712 57.5936 10.048C57.3603 10.384 57.0289 10.65 56.5996 10.846C56.1796 11.0327 55.6943 11.126 55.1436 11.126ZM66.7421 6.87C66.7421 7.11267 66.7281 7.36933 66.7001 7.64H60.5681C60.6147 8.396 60.8714 8.98867 61.3381 9.418C61.8141 9.838 62.3881 10.048 63.0601 10.048C63.6107 10.048 64.0681 9.922 64.4321 9.67C64.8054 9.40867 65.0667 9.06333 65.2161 8.634H66.5881C66.3827 9.37133 65.9721 9.97333 65.3561 10.44C64.7401 10.8973 63.9747 11.126 63.0601 11.126C62.3321 11.126 61.6787 10.9627 61.1001 10.636C60.5307 10.3093 60.0827 9.84733 59.7561 9.25C59.4294 8.64333 59.2661 7.94333 59.2661 7.15C59.2661 6.35667 59.4247 5.66133 59.7421 5.064C60.0594 4.46667 60.5027 4.00933 61.0721 3.692C61.6507 3.36533 62.3134 3.202 63.0601 3.202C63.7881 3.202 64.4321 3.36067 64.9921 3.678C65.5521 3.99533 65.9814 4.434 66.2801 4.994C66.5881 5.54467 66.7421 6.17 66.7421 6.87ZM65.4261 6.604C65.4261 6.11867 65.3187 5.70333 65.1041 5.358C64.8894 5.00333 64.5954 4.73733 64.2221 4.56C63.8581 4.37333 63.4521 4.28 63.0041 4.28C62.3601 4.28 61.8094 4.48533 61.3521 4.896C60.9041 5.30667 60.6474 5.876 60.5821 6.604H65.4261ZM71.1397 11.126C70.5517 11.126 70.0244 11.028 69.5577 10.832C69.091 10.6267 68.7224 10.3467 68.4517 9.992C68.181 9.628 68.0317 9.21267 68.0037 8.746H69.3197C69.357 9.12867 69.5344 9.44133 69.8517 9.684C70.1784 9.92667 70.603 10.048 71.1257 10.048C71.611 10.048 71.9937 9.94067 72.2737 9.726C72.5537 9.51133 72.6937 9.24067 72.6937 8.914C72.6937 8.578 72.5444 8.33067 72.2457 8.172C71.947 8.004 71.485 7.84067 70.8597 7.682C70.2904 7.53267 69.8237 7.38333 69.4597 7.234C69.105 7.07533 68.797 6.84667 68.5357 6.548C68.2837 6.24 68.1577 5.83867 68.1577 5.344C68.1577 4.952 68.2744 4.59267 68.5077 4.266C68.741 3.93933 69.0724 3.68267 69.5017 3.496C69.931 3.3 70.421 3.202 70.9717 3.202C71.821 3.202 72.507 3.41667 73.0297 3.846C73.5524 4.27533 73.8324 4.86333 73.8697 5.61H72.5957C72.5677 5.20867 72.4044 4.88667 72.1057 4.644C71.8164 4.40133 71.4244 4.28 70.9297 4.28C70.4724 4.28 70.1084 4.378 69.8377 4.574C69.567 4.77 69.4317 5.02667 69.4317 5.344C69.4317 5.596 69.511 5.806 69.6697 5.974C69.8377 6.13267 70.043 6.26333 70.2857 6.366C70.5377 6.45933 70.883 6.56667 71.3217 6.688C71.8724 6.83733 72.3204 6.98667 72.6657 7.136C73.011 7.276 73.305 7.49067 73.5477 7.78C73.7997 8.06933 73.9304 8.44733 73.9397 8.914C73.9397 9.334 73.823 9.712 73.5897 10.048C73.3564 10.384 73.025 10.65 72.5957 10.846C72.1757 11.0327 71.6904 11.126 71.1397 11.126Z" fill="#9DA6A5"/>
</svg>
