<svg width="119" height="15" viewBox="0 0 119 15" fill="none" xmlns="http://www.w3.org/2000/svg">
<path d="M10.094 2.172L6.608 12H3.612L0.126 2.172H2.674L5.11 9.592L7.56 2.172H10.094ZM12.2986 3.376C11.8786 3.376 11.5332 3.25467 11.2626 3.012C11.0012 2.76 10.8706 2.452 10.8706 2.088C10.8706 1.71467 11.0012 1.40667 11.2626 1.164C11.5332 0.911999 11.8786 0.785999 12.2986 0.785999C12.7092 0.785999 13.0452 0.911999 13.3066 1.164C13.5772 1.40667 13.7126 1.71467 13.7126 2.088C13.7126 2.452 13.5772 2.76 13.3066 3.012C13.0452 3.25467 12.7092 3.376 12.2986 3.376ZM13.4886 4.188V12H11.0946V4.188H13.4886ZM22.5875 7.968C22.5875 8.192 22.5735 8.42533 22.5455 8.668H17.1275C17.1648 9.15333 17.3188 9.52667 17.5895 9.788C17.8695 10.04 18.2101 10.166 18.6115 10.166C19.2088 10.166 19.6241 9.914 19.8575 9.41H22.4055C22.2748 9.92333 22.0368 10.3853 21.6915 10.796C21.3555 11.2067 20.9308 11.5287 20.4175 11.762C19.9041 11.9953 19.3301 12.112 18.6955 12.112C17.9301 12.112 17.2488 11.9487 16.6515 11.622C16.0541 11.2953 15.5875 10.8287 15.2515 10.222C14.9155 9.61533 14.7475 8.906 14.7475 8.094C14.7475 7.282 14.9108 6.57267 15.2375 5.966C15.5735 5.35933 16.0401 4.89267 16.6375 4.566C17.2348 4.23933 17.9208 4.076 18.6955 4.076C19.4515 4.076 20.1235 4.23467 20.7115 4.552C21.2995 4.86933 21.7568 5.322 22.0835 5.91C22.4195 6.498 22.5875 7.184 22.5875 7.968ZM20.1375 7.338C20.1375 6.92733 19.9975 6.60067 19.7175 6.358C19.4375 6.11533 19.0875 5.994 18.6675 5.994C18.2661 5.994 17.9255 6.11067 17.6455 6.344C17.3748 6.57733 17.2068 6.90867 17.1415 7.338H20.1375ZM35.0644 4.188L32.9504 12H30.3044L29.0724 6.932L27.7984 12H25.1664L23.0384 4.188H25.4324L26.5384 9.774L27.8544 4.188H30.3884L31.7184 9.746L32.8104 4.188H35.0644ZM45.0622 10.264H41.3942L40.8062 12H38.3002L41.8562 2.172H44.6282L48.1842 12H45.6502L45.0622 10.264ZM44.4462 8.416L43.2282 4.818L42.0242 8.416H44.4462ZM51.6604 1.64V12H49.2664V1.64H51.6604ZM55.7893 1.64V12H53.3953V1.64H55.7893ZM60.085 7.072C60.085 6.10133 60.295 5.238 60.715 4.482C61.135 3.71667 61.7184 3.124 62.465 2.704C63.221 2.27467 64.075 2.06 65.027 2.06C66.1937 2.06 67.1924 2.368 68.023 2.984C68.8537 3.6 69.409 4.44 69.689 5.504H67.057C66.861 5.09333 66.581 4.78067 66.217 4.566C65.8624 4.35133 65.4564 4.244 64.999 4.244C64.2617 4.244 63.6644 4.50067 63.207 5.014C62.7497 5.52733 62.521 6.21333 62.521 7.072C62.521 7.93067 62.7497 8.61667 63.207 9.13C63.6644 9.64333 64.2617 9.9 64.999 9.9C65.4564 9.9 65.8624 9.79267 66.217 9.578C66.581 9.36333 66.861 9.05067 67.057 8.64H69.689C69.409 9.704 68.8537 10.544 68.023 11.16C67.1924 11.7667 66.1937 12.07 65.027 12.07C64.075 12.07 63.221 11.86 62.465 11.44C61.7184 11.0107 61.135 10.418 60.715 9.662C60.295 8.906 60.085 8.04267 60.085 7.072ZM74.7111 12.112C73.9458 12.112 73.2551 11.9487 72.6391 11.622C72.0324 11.2953 71.5518 10.8287 71.1971 10.222C70.8518 9.61533 70.6791 8.906 70.6791 8.094C70.6791 7.29133 70.8564 6.58667 71.2111 5.98C71.5658 5.364 72.0511 4.89267 72.6671 4.566C73.2831 4.23933 73.9738 4.076 74.7391 4.076C75.5044 4.076 76.1951 4.23933 76.8111 4.566C77.4271 4.89267 77.9124 5.364 78.2671 5.98C78.6218 6.58667 78.7991 7.29133 78.7991 8.094C78.7991 8.89667 78.6171 9.606 78.2531 10.222C77.8984 10.8287 77.4084 11.2953 76.7831 11.622C76.1671 11.9487 75.4764 12.112 74.7111 12.112ZM74.7111 10.04C75.1684 10.04 75.5558 9.872 75.8731 9.536C76.1998 9.2 76.3631 8.71933 76.3631 8.094C76.3631 7.46867 76.2044 6.988 75.8871 6.652C75.5791 6.316 75.1964 6.148 74.7391 6.148C74.2724 6.148 73.8851 6.316 73.5771 6.652C73.2691 6.97867 73.1151 7.45933 73.1151 8.094C73.1151 8.71933 73.2644 9.2 73.5631 9.536C73.8711 9.872 74.2538 10.04 74.7111 10.04ZM87.7832 4.188V12H85.3892V10.936C85.1465 11.2813 84.8152 11.5613 84.3952 11.776C83.9845 11.9813 83.5272 12.084 83.0232 12.084C82.4258 12.084 81.8985 11.9533 81.4412 11.692C80.9838 11.4213 80.6292 11.034 80.3772 10.53C80.1252 10.026 79.9992 9.43333 79.9992 8.752V4.188H82.3792V8.43C82.3792 8.95267 82.5145 9.35867 82.7852 9.648C83.0558 9.93733 83.4198 10.082 83.8772 10.082C84.3438 10.082 84.7125 9.93733 84.9832 9.648C85.2538 9.35867 85.3892 8.95267 85.3892 8.43V4.188H87.7832ZM91.8968 5.49C92.1768 5.06067 92.5268 4.72467 92.9468 4.482C93.3668 4.23 93.8334 4.104 94.3468 4.104V6.638H93.6888C93.0914 6.638 92.6434 6.76867 92.3448 7.03C92.0461 7.282 91.8968 7.73 91.8968 8.374V12H89.5028V4.188H91.8968V5.49ZM98.669 12.112C97.9877 12.112 97.381 11.9953 96.849 11.762C96.317 11.5287 95.897 11.2113 95.589 10.81C95.281 10.3993 95.1084 9.942 95.071 9.438H97.437C97.465 9.70867 97.591 9.928 97.815 10.096C98.039 10.264 98.3144 10.348 98.641 10.348C98.9397 10.348 99.1684 10.292 99.327 10.18C99.495 10.0587 99.579 9.90467 99.579 9.718C99.579 9.494 99.4624 9.33067 99.229 9.228C98.9957 9.116 98.6177 8.99467 98.095 8.864C97.535 8.73333 97.0684 8.598 96.695 8.458C96.3217 8.30867 95.9997 8.08 95.729 7.772C95.4584 7.45467 95.323 7.03 95.323 6.498C95.323 6.05 95.4444 5.644 95.687 5.28C95.939 4.90667 96.303 4.61267 96.779 4.398C97.2644 4.18333 97.8384 4.076 98.501 4.076C99.481 4.076 100.251 4.31867 100.811 4.804C101.38 5.28933 101.707 5.93333 101.791 6.736H99.579C99.5417 6.46533 99.4204 6.25067 99.215 6.092C99.019 5.93333 98.7577 5.854 98.431 5.854C98.151 5.854 97.9364 5.91 97.787 6.022C97.6377 6.12467 97.563 6.26933 97.563 6.456C97.563 6.68 97.6797 6.848 97.913 6.96C98.1557 7.072 98.529 7.184 99.033 7.296C99.6117 7.44533 100.083 7.59467 100.447 7.744C100.811 7.884 101.128 8.11733 101.399 8.444C101.679 8.76133 101.824 9.19067 101.833 9.732C101.833 10.1893 101.702 10.6 101.441 10.964C101.189 11.3187 100.82 11.5987 100.335 11.804C99.859 12.0093 99.3037 12.112 98.669 12.112ZM110.662 7.968C110.662 8.192 110.648 8.42533 110.62 8.668H105.202C105.239 9.15333 105.393 9.52667 105.664 9.788C105.944 10.04 106.284 10.166 106.686 10.166C107.283 10.166 107.698 9.914 107.932 9.41H110.48C110.349 9.92333 110.111 10.3853 109.766 10.796C109.43 11.2067 109.005 11.5287 108.492 11.762C107.978 11.9953 107.404 12.112 106.77 12.112C106.004 12.112 105.323 11.9487 104.726 11.622C104.128 11.2953 103.662 10.8287 103.326 10.222C102.99 9.61533 102.822 8.906 102.822 8.094C102.822 7.282 102.985 6.57267 103.312 5.966C103.648 5.35933 104.114 4.89267 104.712 4.566C105.309 4.23933 105.995 4.076 106.77 4.076C107.526 4.076 108.198 4.23467 108.786 4.552C109.374 4.86933 109.831 5.322 110.158 5.91C110.494 6.498 110.662 7.184 110.662 7.968ZM108.212 7.338C108.212 6.92733 108.072 6.60067 107.792 6.358C107.512 6.11533 107.162 5.994 106.742 5.994C106.34 5.994 106 6.11067 105.72 6.344C105.449 6.57733 105.281 6.90867 105.216 7.338H108.212ZM115.103 12.112C114.421 12.112 113.815 11.9953 113.283 11.762C112.751 11.5287 112.331 11.2113 112.023 10.81C111.715 10.3993 111.542 9.942 111.505 9.438H113.871C113.899 9.70867 114.025 9.928 114.249 10.096C114.473 10.264 114.748 10.348 115.075 10.348C115.373 10.348 115.602 10.292 115.761 10.18C115.929 10.0587 116.013 9.90467 116.013 9.718C116.013 9.494 115.896 9.33067 115.663 9.228C115.429 9.116 115.051 8.99467 114.529 8.864C113.969 8.73333 113.502 8.598 113.129 8.458C112.755 8.30867 112.433 8.08 112.163 7.772C111.892 7.45467 111.757 7.03 111.757 6.498C111.757 6.05 111.878 5.644 112.121 5.28C112.373 4.90667 112.737 4.61267 113.213 4.398C113.698 4.18333 114.272 4.076 114.935 4.076C115.915 4.076 116.685 4.31867 117.245 4.804C117.814 5.28933 118.141 5.93333 118.225 6.736H116.013C115.975 6.46533 115.854 6.25067 115.649 6.092C115.453 5.93333 115.191 5.854 114.865 5.854C114.585 5.854 114.37 5.91 114.221 6.022C114.071 6.12467 113.997 6.26933 113.997 6.456C113.997 6.68 114.113 6.848 114.347 6.96C114.589 7.072 114.963 7.184 115.467 7.296C116.045 7.44533 116.517 7.59467 116.881 7.744C117.245 7.884 117.562 8.11733 117.833 8.444C118.113 8.76133 118.257 9.19067 118.267 9.732C118.267 10.1893 118.136 10.6 117.875 10.964C117.623 11.3187 117.254 11.5987 116.769 11.804C116.293 12.0093 115.737 12.112 115.103 12.112Z" fill="#1EBFC1"/>
<path d="M0 13.4H118.869V14.1H0V13.4Z" fill="#1EBFC1"/>
</svg>
